<?xml version="1.0" encoding="UTF-8" standalone="no"?>
<svg width="38px" height="34px" viewBox="0 0 38 34" version="1.1" xmlns="http://www.w3.org/2000/svg" xmlns:xlink="http://www.w3.org/1999/xlink" xmlns:sketch="http://www.bohemiancoding.com/sketch/ns">
  <g transform="translate(-44.000000, -502.000000)" fill="#FFFFFF">
    <g transform="translate(14.000000, 470.000000)">
      <path d="M63.2409627,57.4708201 C60.946408,56.4268277 57.5409891,53.7357915 52.4985626,52.8112206 C53.7877984,51.3981564 54.7640924,49.1880483 55.7678281,46.5694215 C56.3499104,45.0526065 56.2496424,43.7589638 56.2496424,41.9173872 C56.2496424,40.5567387 56.5003125,38.3736491 56.1704834,37.1740305 C55.0585638,33.1191036 52.2478926,32 48.9554071,32 C45.660283,32 42.8469732,33.1239669 41.7366367,37.1859186 C41.4094463,38.382295 41.6606441,40.5605213 41.6606441,41.9173872 C41.6606441,43.7632867 41.562487,45.060712 42.1461525,46.5807692 C43.1578041,49.2123649 44.1193217,51.4192308 45.4043357,52.8268913 C40.4020165,53.7682136 37.0224562,56.4387158 34.7421501,57.4800064 C30.02322,59.6344565 30,61.9931659 30,61.9931659 L30,66 L68,65.9956771 L68,61.9931659 C68,61.9931659 67.9778355,59.6263509 63.2409627,57.4708201"></path>
    </g>
  </g>
</svg>
