<?xml version="1.0" encoding="UTF-8" standalone="no"?>
<svg width="26px" height="26px" viewBox="0 0 26 26" version="1.1" xmlns="http://www.w3.org/2000/svg" xmlns:xlink="http://www.w3.org/1999/xlink" xmlns:sketch="http://www.bohemiancoding.com/sketch/ns">
    <!-- Generator: Sketch 3.0.4 (8053) - http://www.bohemiancoding.com/sketch -->
    <title>Fill 37</title>
    <desc>Created with Sketch.</desc>
    <defs></defs>
    <g id="4" stroke="none" stroke-width="1" fill="none" fill-rule="evenodd" sketch:type="MSPage">
        <g id="Set-4" sketch:type="MSLayerGroup" transform="translate(-73.000000, -217.000000)" fill="#ffffff">
            <path d="M96.708,220.394 L94.246,217.933 C93.683,217.371 92.772,217.371 92.21,217.933 L90.087,220.055 C89.837,220.305 89.837,220.71 90.087,220.961 L93.68,224.553 C93.93,224.803 94.335,224.803 94.585,224.553 L96.708,222.431 C97.27,221.869 97.27,220.957 96.708,220.394 Z M89.318,221.73 C89.068,221.479 88.663,221.48 88.413,221.73 L76.663,233.48 C76.413,233.73 76.412,234.135 76.663,234.386 L80.255,237.978 C80.505,238.228 80.911,238.228 81.161,237.978 L92.911,226.228 C93.161,225.978 93.161,225.573 92.911,225.323 L89.318,221.73 Z M75.982,235.244 C75.794,235.056 75.491,235.056 75.303,235.244 C75.262,235.285 75.23,235.332 75.208,235.382 L73.429,240.575 L73.397,240.668 C73.361,240.824 73.404,240.995 73.525,241.116 C73.646,241.237 73.817,241.28 73.973,241.244 L74.066,241.212 L79.165,239.466 L79.259,239.433 C79.309,239.411 79.356,239.379 79.397,239.338 C79.585,239.15 79.585,238.846 79.397,238.659 L75.982,235.244 Z" id="Fill-37" sketch:type="MSShapeGroup"></path>
        </g>
    </g>
</svg>