<?xml version="1.0" encoding="UTF-8" standalone="no"?>
<svg width="19px" height="18px" viewBox="0 0 19 18" version="1.1" xmlns="http://www.w3.org/2000/svg" xmlns:xlink="http://www.w3.org/1999/xlink" xmlns:sketch="http://www.bohemiancoding.com/sketch/ns">
    <!-- Generator: Sketch 3.0.4 (8053) - http://www.bohemiancoding.com/sketch -->
    <title>Fill 15</title>
    <desc>Created with Sketch.</desc>
    <defs></defs>
    <g id="Page-1" stroke="none" stroke-width="1" fill="none" fill-rule="evenodd" sketch:type="MSPage">
        <g id="Artboard-1" sketch:type="MSArtboardGroup" transform="translate(-3.000000, -3.000000)" fill="#343433">
            <path d="M21.919313,10.3468326 C22.0268957,9.81115101 22.0268957,9.25628086 21.919313,8.7205993 C21.8267769,8.25687497 21.6514849,7.80834161 21.3964462,7.39898495 C21.2647892,7.18631138 21.1090576,6.98403163 20.9330133,6.79694285 L19.0950802,4.84290446 L18.4277668,4.13372604 C18.2517224,3.94663726 18.0621362,3.78193517 17.8612651,3.64121882 C17.476074,3.37097947 17.054019,3.18548973 16.6176698,3.08634867 C16.1143635,2.97121711 15.5914967,2.97121711 15.0874381,3.08634867 C14.4246387,3.23745884 13.7934369,3.58685114 13.2773411,4.13372604 L12.1037121,5.38178411 L4.15839438,13.8255646 C3.55427638,14.4667834 3.18714116,15.2639095 3.05473174,16.0946157 C2.98175609,16.5599391 2.98175609,17.0348568 3.05473174,17.4993806 C3.13146902,17.979895 3.28644823,18.4484164 3.5204217,18.8825584 C3.69044744,19.1999697 3.90335577,19.4981924 4.15839438,19.7692313 C4.30961196,19.9299357 4.47060978,20.0754492 4.63913087,20.2049722 C5.14018016,20.5911427 5.70743417,20.8357972 6.29199168,20.940535 C6.72984558,21.0196879 7.17747971,21.0196879 7.61608592,20.9413345 C8.39775292,20.8014177 9.14857454,20.4104501 9.75194021,19.7692313 L9.75419719,19.7724294 L17.1089388,11.9562758 L17.1066818,11.9530777 C17.2473669,11.8035666 17.3669867,11.6404635 17.4677985,11.4677662 C17.5136904,11.3878137 17.556573,11.3062622 17.5934369,11.2223121 C17.8484755,10.6554491 17.9033954,10.0118317 17.7574441,9.41218817 C17.7183231,9.24748608 17.6618986,9.08678162 17.5926846,8.93167382 C17.4738171,8.66783067 17.3120669,8.42077753 17.1066818,8.20250729 C16.9012968,7.98423704 16.6680756,7.81153971 16.4190556,7.6852148 C16.2738567,7.610859 16.1218868,7.5524937 15.9661552,7.51011889 C15.4019105,7.3550111 14.7977925,7.41417592 14.2651455,7.6852148 C14.1853989,7.72439151 14.1086617,7.76996442 14.0326767,7.81873543 C13.8709265,7.92507221 13.717452,8.05299617 13.5775193,8.20250729 L13.5730053,8.19850966 L8.91610572,13.1475676 L7.3979113,14.761808 L7.40167294,14.7658056 C7.07666799,15.1112003 7.07666799,15.6716671 7.40167294,16.0170618 C7.72667789,16.363256 8.2540586,16.363256 8.57981588,16.0178613 L8.95296971,15.6204975 L14.7549099,9.45456298 L14.7571669,9.45696156 C15.0806672,9.11396546 15.603534,9.11396546 15.9262819,9.45696156 C16.2482776,9.79995766 16.2482776,10.3556273 15.9262819,10.699423 L15.9277866,10.7002225 L13.0847456,13.7208268 L10.8548505,16.0922171 L8.57229262,18.516376 L8.57003564,18.5139775 C7.83275589,19.2975117 6.71705603,19.4326314 5.84811918,18.9209356 C5.66605623,18.8129997 5.49452584,18.67788 5.33954662,18.5131779 C5.07472778,18.2317453 4.88815086,17.8975439 4.7805682,17.542555 C4.52628192,16.7038535 4.71210651,15.7468225 5.33954662,15.0808184 L5.33578499,15.0760212 L12.1007028,7.88669503 L12.2917937,7.68361575 L14.4547317,5.38498221 C15.0453079,4.75815484 15.914997,4.61024277 16.6372303,4.94204552 C16.8599188,5.04358516 17.0683132,5.19149723 17.2503762,5.38498221 L17.9176896,6.0933611 L19.0905662,7.33982013 L19.4133142,7.68361575 L19.756375,8.04819902 C19.9384379,8.24088447 20.0776183,8.46315234 20.1731637,8.69981166 C20.4846268,9.46735538 20.3469511,10.3924055 19.756375,11.0192328 L18.5819937,12.2664914 L17.5934369,13.3178664 L17.4023461,13.5209457 L11.8923085,19.3758651 L11.7403385,19.5381686 C11.4875569,19.8851624 11.5123837,20.3856648 11.8110572,20.7038757 C12.1368145,21.0492703 12.6641952,21.0492703 12.9892002,20.7038757 L12.9937141,20.7078733 L20.9330133,12.2696895 C21.4491091,11.7228146 21.7778757,11.0512138 21.919313,10.3468326" id="Fill-15" sketch:type="MSShapeGroup"></path>
        </g>
    </g>
</svg>