<?xml version="1.0" encoding="UTF-8" standalone="no"?>
<svg width="13px" height="10px" viewBox="0 0 13 10" version="1.1" xmlns="http://www.w3.org/2000/svg" xmlns:xlink="http://www.w3.org/1999/xlink">
  <g transform="translate(0.000000, -3.000000)" fill="white">
    <path d="M0.151084779,9.14637515 C-0.0507822562,8.93484281 -0.0502405736,8.5883902 0.151987583,8.37723526 L1.45166461,7.01878627 C1.65389277,6.80725393 1.98504138,6.80725393 2.18745009,7.01840887 L4.29820648,9.21940193 C4.5006152,9.43055687 4.83140268,9.43017947 5.03345028,9.21864713 L10.8178978,3.15931173 C11.0199454,2.94777939 11.351094,2.94664719 11.5540444,3.15742473 L12.8472212,4.49926815 C13.0501716,4.71004569 13.0510745,5.0553661 12.8490269,5.26708714 L5.83441823,12.6152414 C5.63237063,12.8267737 5.23315058,13 4.94714219,13 L4.34117996,13 C4.05517157,13 3.65631264,12.8263963 3.45444561,12.614864 L0.151084779,9.14637515"></path>
  </g>
</svg>
